<?xml version="1.0" encoding="UTF-8" standalone="no"?>
<!-- Created with Inkscape (http://www.inkscape.org/) -->

<svg
   xmlns:dc="http://purl.org/dc/elements/1.1/"
   xmlns:cc="http://creativecommons.org/ns#"
   xmlns:rdf="http://www.w3.org/1999/02/22-rdf-syntax-ns#"
   xmlns:svg="http://www.w3.org/2000/svg"
   xmlns="http://www.w3.org/2000/svg"
   xmlns:sodipodi="http://sodipodi.sourceforge.net/DTD/sodipodi-0.dtd"
   xmlns:inkscape="http://www.inkscape.org/namespaces/inkscape"
   id="svg3390"
   version="1.1"
   inkscape:version="0.91+devel+osxmenu r12922"
   width="1598.3064"
   height="872.75702"
   viewBox="0 0 1598.3064 872.75702"
   sodipodi:docname="drosophila.svg">
  <metadata
     id="metadata3396">
    <rdf:RDF>
      <cc:Work
         rdf:about="">
        <dc:format>image/svg+xml</dc:format>
        <dc:type
           rdf:resource="http://purl.org/dc/dcmitype/StillImage" />
        <dc:title></dc:title>
      </cc:Work>
    </rdf:RDF>
  </metadata>
  <defs
     id="defs3394" />
  <sodipodi:namedview
     pagecolor="#ffffff"
     bordercolor="#666666"
     borderopacity="1"
     objecttolerance="10"
     gridtolerance="10"
     guidetolerance="10"
     inkscape:pageopacity="0"
     inkscape:pageshadow="2"
     inkscape:window-width="1440"
     inkscape:window-height="855"
     id="namedview3392"
     showgrid="false"
     inkscape:zoom="0.34541667"
     inkscape:cx="917.57439"
     inkscape:cy="204.47038"
     inkscape:window-x="0"
     inkscape:window-y="23"
     inkscape:window-maximized="0"
     inkscape:current-layer="svg3390"
     fit-margin-top="0"
     fit-margin-left="0"
     fit-margin-right="0"
     fit-margin-bottom="0" />
  <path
     style="fill:#000000;stroke-width:0.99999994"
     d="m 239.04501,871.28978 c -3.8839,-0.93269 -13.89249,-4.28165 -22.2413,-7.44206 C 105.28956,821.63341 36.732915,753.26989 4.7069615,652.34812 -4.4093671,586.8951 -2.773995,487.0451 32.25969,439.4763 46.356142,420.3361 68.134502,395.22584 93.574541,368.78078 131.9449,328.89456 153.20819,311.16784 178.78325,297.74416 c 28.13716,-14.76845 44.08268,-14.53701 59.88458,0.86919 12.64423,12.32761 21.05526,29.37368 40.39549,81.86675 14.55223,39.49753 20.70717,53.82057 28.0939,65.37681 7.09085,11.09332 10.86044,14.54213 17.04031,15.59022 4.63352,0.78583 5.05656,0.65203 4.44818,-1.40705 -2.49637,-8.44896 -8.07002,-34.83082 -9.65412,-45.69601 -2.72945,-18.72107 -2.46871,-42.34866 0.60385,-54.71853 5.33635,-21.48364 14.48908,-34.20173 34.61308,-48.09622 15.16423,-10.47004 31.98067,-27.73819 36.3991,-37.37681 6.42576,-14.01751 8.34919,-30.77399 5.0262,-43.78717 -2.72932,-10.68829 -7.12891,-18.73308 -20.71883,-37.88505 -18.87185,-26.59566 -23.29286,-37.65024 -21.90437,-54.77112 0.75482,-9.30731 2.7057,-16.68417 4.41232,-16.68417 0.57308,0 2.41951,-2.83345 4.10317,-6.29659 3.90171,-8.02544 12.28029,-17.428003 20.3576,-22.845573 8.72147,-5.84966 19.19352,-10.14406 37.82181,-15.51008 43.69438,-12.58646 56.93905,-17.7138 68.91623,-26.67908 2.96295,-2.21786 8.09251,-7.91482 11.39904,-12.65994 9.54037,-13.69115 13.7466,-17.74382 23.55884,-22.69881 l 9.13035,-4.6106196 26.17789,7.1723196 c 14.39787,3.94477 27.14891,6.85434 28.33568,6.46571 1.18676,-0.38865 5.88826,-4.10502 10.44779,-8.25862 16.46409,-14.99833959 17.48592,-15.66880959 22.7027,-14.89651959 12.82373,1.89842999 19.7371,6.34873999 24.27952,15.62934959 1.96697,4.0187 2.80137,4.70028 4.93267,4.02929 1.41087,-0.44422 8.39113,-1.11663 15.51163,-1.4943 27.39495,-1.45298 53.03368,8.07254 80.29152,29.83064 10.87436,8.68022 30.78186,30.37611 39.34139,42.87563 6.46483,9.440513 6.68304,10.024823 7.97649,21.360043 0.73146,6.4097 1.62889,13.58522 1.99445,15.9456 l 0.6645,4.29161 1.49647,-3.06486 c 0.82304,-1.68569 1.80403,-7.8391 2.17993,-13.67429 0.37592,-5.83516 1.48989,-12.45954 2.47535,-14.72085 0.98558,-2.261293 13.59368,-18.188273 28.01815,-35.393273 l 26.22625,-31.28182 11.18095,-5.77267 c 61.58275,-31.7949996 227.50919,-22.1328196 309.13949,18.00173 21.5702,10.60521 36.3175,22.85435 42.9875,35.7053 13.2389,25.507083 18.7876,90.210213 10.2165,119.133913 -3.2741,11.0491 -5.9764,15.05136 -19.1592,28.3755 -6.2213,6.28819 -12.163,13.14928 -13.2036,15.24687 -2.9629,5.97196 -1.7246,20.54785 2.4744,29.1221 3.9189,8.00278 17.2284,22.10778 38.8306,41.15106 17.8767,15.75919 27.3223,27.01088 33.3485,39.72513 6.5624,13.84517 6.1879,20.27493 -3.6145,62.05333 -6.9121,29.45976 -10.2751,45.42534 -10.2751,48.77891 0,0.60441 1.5887,0.77906 3.5307,0.38809 1.9419,-0.39098 5.1212,-1.03108 7.0651,-1.42248 2.8359,-0.57102 4.4809,-2.37242 8.3251,-9.11703 4.2419,-7.44227 7.4561,-11.09171 20.189,-22.92313 4.6118,-4.28526 7.154,-14.07871 14.452,-55.67014 11.2034,-63.85075 16.4624,-84.18517 27.38,-105.86794 10.467,-20.78786 27.3061,-31.42992 49.7322,-31.42992 13.0239,0 22.9504,3.96563 42.9246,17.14861 5.8258,3.84504 18.0072,10.95694 27.0697,15.80424 34.2101,18.29826 62.1788,45.7023 87.1869,85.42738 26.3747,41.89535 43.0043,88.99833 50.6722,143.52834 1.5187,10.80083 2.0754,22.5609 2.0907,44.16257 0.024,33.3017 -1.5422,47.82179 -8.0686,74.8285 -20.1975,83.57876 -85.2187,164.89358 -163.2808,204.1968 -31.35,15.78431 -52.5125,21.33861 -81.5868,21.4132 -15.6536,0.0405 -20.5789,-0.41071 -29.1897,-2.67185 -36.7031,-9.63798 -63.3711,-36.11822 -79.0455,-78.48926 -7.7086,-20.83799 -12.766,-47.4814 -15.6591,-82.49616 l -0.8614,-10.42728 -6.3901,-3.37354 c -4.9455,-2.61086 -8.1382,-3.39401 -14.1232,-3.46442 -4.2534,-0.0503 -10.1018,-0.46396 -12.9967,-0.92006 -5.1399,-0.80965 -5.4053,-1.08001 -11.3032,-11.51195 -5.4758,-9.68571 -10.7832,-23.62931 -12.7894,-33.60073 -0.7318,-3.63647 -0.1886,-4.30819 12.5301,-15.49542 24.5577,-21.60081 39.3954,-39.49959 48.5788,-58.60121 18.391,-33.96376 -7.654,-35.62452 -36.3425,-36.2666 -16.0066,-0.35825 -30.1623,-0.30089 -31.4572,0.12746 -1.2948,0.42837 -10.0843,11.63306 -19.532,24.89937 -32.6428,45.83573 -52.3728,61.75102 -82.5148,66.56046 -9.3836,1.49722 -9.6125,1.61531 -9.6125,4.95632 0,12.2921 -18.7675,39.27848 -31.0299,44.61885 l -3.9852,1.73559 4.0863,11.33886 c 9.8904,27.44581 10.2259,53.09531 0.9703,74.22071 -17.50817,39.96198 -67.46804,67.81887 -140.69804,78.451 -20.85728,3.02833 -68.91568,3.02624 -90.03603,0 -17.38777,-2.49444 -42.54713,-8.87335 -53.68123,-13.61016 -10.98769,-4.67449 -15.31083,-4.92401 -32.70344,-1.88746 -10.43923,1.82256 -18.94311,2.57381 -25.89318,2.2875 -9.22852,-0.38017 -11.2924,-0.92876 -19.0635,-5.06681 -4.79312,-2.55247 -13.74615,-8.34573 -19.89567,-12.87424 -13.50708,-9.94639 -37.51832,-34.34744 -41.31187,-41.9824 -3.73877,-7.52469 -3.55067,-21.23411 0.5704,-41.5711 3.35467,-16.55495 3.83192,-24.59168 1.70666,-28.74025 -1.67074,-3.2613 -7.8897,-9.46797 -9.10602,-9.08805 -1.01912,0.31834 -28.59817,-15.69979 -52.48765,-30.4853 -29.05173,-17.98051 -48.29734,-34.13271 -62.41491,-52.38275 -10.53719,-13.62163 -13.89387,-19.97343 -18.94569,-35.85069 -6.96462,-21.88896 -9.10118,-25.22022 -19.85636,-30.95936 -4.54663,-2.42614 -7.75803,-3.16755 -14.1233,-3.26057 -10.2608,-0.14995 -16.1482,1.55315 -34.71977,10.04376 -8.09148,3.69929 -16.56546,7.40985 -18.83107,8.24566 -5.12512,1.89075 -5.16618,4.84541 -0.21889,15.74434 6.68416,14.72531 15.55238,23.7181 44.47085,45.09561 18.13383,13.40514 28.92433,24.39649 33.12269,33.73925 2.73164,6.07874 3.23287,8.77769 3.16394,17.03682 -0.0748,8.9493 -0.67503,11.38119 -6.81388,27.60161 -11.0044,29.07663 -10.32599,27.91699 -16.883,28.85643 -7.4627,1.0691 -25.28896,5.32871 -27.02561,6.45792 -1.03419,0.67237 -0.9616,2.54499 0.29424,7.5913 0.93167,3.74363 1.66708,12.46402 1.66708,19.76802 0,56.37683 -49.90513,120.30522 -107.69015,137.95108 -13.13066,4.00972 -36.87666,5.24742 -48.25459,2.51497 z"
     id="path3400"
     inkscape:connector-curvature="0"
     sodipodi:nodetypes="csccssssssssssssssssssssscsssssssssscccscscssssssssssssssssssssssssscssscscccsscccsssscssscssscsssscssssssssssssccssscc" />
</svg>
